<svg width="300" height="300" viewBox="0 0 48 48" fill="none" xmlns="http://www.w3.org/2000/svg">
    <mask id="a" fill="#fff">
        <path fill-rule="evenodd" clip-rule="evenodd" d="M24 48c13.255 0 24-10.745 24-24S37.255 0 24 0 0 10.745 0 24s10.745 24 24 24Zm0-9.6c8.206 0 14.857-6.447 14.857-14.4S32.206 9.6 24 9.6C15.795 9.6 9.143 16.047 9.143 24S15.795 38.4 24 38.4Z"/>
    </mask>
    <path fill-rule="evenodd" clip-rule="evenodd" d="M24 48c13.255 0 24-10.745 24-24S37.255 0 24 0 0 10.745 0 24s10.745 24 24 24Zm0-9.6c8.206 0 14.857-6.447 14.857-14.4S32.206 9.6 24 9.6C15.795 9.6 9.143 16.047 9.143 24S15.795 38.4 24 38.4Z" fill="#fff" fill-opacity=".6"/>
    <path d="M47.5 24c0 12.979-10.521 23.5-23.5 23.5v1c13.531 0 24.5-10.969 24.5-24.5h-1ZM24 .5C36.979.5 47.5 11.021 47.5 24h1C48.5 10.469 37.531-.5 24-.5v1ZM.5 24C.5 11.021 11.021.5 24 .5v-1C10.469-.5-.5 10.469-.5 24h1ZM24 47.5C11.021 47.5.5 36.979.5 24h-1c0 13.531 10.969 24.5 24.5 24.5v-1ZM38.357 24c0 7.662-6.413 13.9-14.357 13.9v1c8.467 0 15.357-6.656 15.357-14.9h-1ZM24 10.1c7.944 0 14.357 6.238 14.357 13.9h1c0-8.244-6.89-14.9-15.357-14.9v1ZM9.643 24c0-7.662 6.413-13.9 14.357-13.9v-1C15.534 9.1 8.643 15.756 8.643 24h1ZM24 37.9c-7.944 0-14.357-6.238-14.357-13.9h-1c0 8.244 6.89 14.9 15.357 14.9v-1Z" fill="#000" fill-opacity=".1" mask="url(#a)"/>
    <circle cx="24" cy="24" r="12" fill="#fff" fill-opacity=".9"/>
    <path d="m27.57 26.403-3.595-3.593-3.595 3.593a.75.75 0 1 1-1.06-1.061l4.125-4.122a.75.75 0 0 1 1.06 0l4.125 4.122a.75.75 0 1 1-1.06 1.06Z" fill="#3D98FF"/>
</svg>
